<svg xmlns="http://www.w3.org/2000/svg" viewBox="0 0 1200 720" role="img" aria-labelledby="title desc">
  <title id="title">システム構成図</title>
  <desc id="desc">ユーザー、エッジ、サービス、保存先、イベントの流れを表すシステム設計図。</desc>
  <rect width="1200" height="720" fill="#f2f6f1"/>
  <g fill="none" stroke="#29322d" stroke-width="4" stroke-linecap="round">
    <path d="M180 180 C330 110 460 120 590 210 S870 330 1020 250"/>
    <path d="M190 510 C330 430 470 470 610 390 S840 250 1010 430"/>
    <path d="M300 350 H900"/>
    <path d="M450 210 V520"/>
    <path d="M750 190 V540"/>
  </g>
  <g>
    <circle cx="180" cy="180" r="54" fill="#ffffff" stroke="#29322d" stroke-width="4"/>
    <circle cx="190" cy="510" r="54" fill="#ffffff" stroke="#29322d" stroke-width="4"/>
    <circle cx="450" cy="210" r="58" fill="#d7ece4" stroke="#29322d" stroke-width="4"/>
    <circle cx="450" cy="520" r="58" fill="#f9df74" stroke="#29322d" stroke-width="4"/>
    <circle cx="750" cy="190" r="58" fill="#ffffff" stroke="#29322d" stroke-width="4"/>
    <circle cx="750" cy="540" r="58" fill="#c7d7ef" stroke="#29322d" stroke-width="4"/>
    <circle cx="1020" cy="250" r="54" fill="#ffffff" stroke="#29322d" stroke-width="4"/>
    <circle cx="1010" cy="430" r="54" fill="#f0a58b" stroke="#29322d" stroke-width="4"/>
  </g>
  <g fill="#29322d" font-family="Arial, sans-serif" font-size="28" font-weight="700" text-anchor="middle">
    <text x="180" y="189">利用者</text>
    <text x="190" y="519">モバイル</text>
    <text x="450" y="219">エッジ</text>
    <text x="450" y="529">キャッシュ</text>
    <text x="750" y="199">API</text>
    <text x="750" y="549">キュー</text>
    <text x="1020" y="259">保存</text>
    <text x="1010" y="439">データ</text>
  </g>
</svg>
